<?xml version="1.0" standalone="no"?>
<!DOCTYPE svg PUBLIC "-//W3C//DTD SVG 20010904//EN"
 "http://www.w3.org/TR/2001/REC-SVG-20010904/DTD/svg10.dtd">
<svg version="1.0" xmlns="http://www.w3.org/2000/svg"
 width="260.000000pt" height="260.000000pt" viewBox="0 0 260.000000 260.000000"
 preserveAspectRatio="xMidYMid meet">
<metadata>
Created by potrace 1.14, written by Peter Selinger 2001-2017
</metadata>
<g transform="translate(0.000000,260.000000) scale(0.100000,-0.100000)"
fill="#000000" stroke="none">
<path d="M0 1300 l0 -1300 1300 0 1300 0 0 1300 0 1300 -1300 0 -1300 0 0
-1300z m523 442 c16 -17 116 -204 261 -487 l75 -146 16 36 c25 60 297 579 313
598 12 14 32 17 114 17 l98 0 0 -490 0 -490 -90 0 -90 0 -2 336 -3 336 -138
-263 c-76 -145 -148 -272 -159 -282 -29 -25 -91 -22 -122 6 -13 12 -86 139
-161 282 -75 143 -138 261 -138 262 -1 1 0 -151 1 -338 l4 -339 -91 0 -91 0 0
490 0 490 93 0 c77 0 97 -3 110 -18z m1827 -35 c0 -63 23 -25 -278 -452 l-219
-310 244 -3 243 -2 0 -80 0 -80 -375 0 -375 0 0 53 0 53 249 355 250 354 -235
3 -234 2 0 80 0 80 365 0 365 0 0 -53z"/>
</g>
</svg>
